<?xml version="1.0"?>
<svg xmlns="http://www.w3.org/2000/svg" version="1.1" width="600px" height="600px" viewBox="0 0 200 200" style="overflow:hidden!important;">
  <defs id="SvgjsDefs3474">
    <radialGradient id="SvgjsRadialGradient3540" cx="100" cy="114" r="41" gradientUnits="userSpaceOnUse" class="svga-on-canvas-facehighlight-gradient-single-0">
      <stop id="SvgjsStop3541" stop-opacity="0.5" stop-color="#ffc6b3" offset="0"/>
      <stop id="SvgjsStop3542" stop-opacity="0" stop-color="#f2aa92" offset="0.9"/>
    </radialGradient>
    <radialGradient id="SvgjsRadialGradient3544" cx="100" cy="54" r="37" gradientUnits="userSpaceOnUse" class="svga-on-canvas-facehighlight-gradient-single-1">
      <stop id="SvgjsStop3545" stop-opacity="0.5" stop-color="#ffc6b3" offset="0"/>
      <stop id="SvgjsStop3546" stop-opacity="0" stop-color="#f2aa92" offset="0.9"/>
    </radialGradient>
    <radialGradient id="SvgjsRadialGradient3629" cx="-568.659" cy="-521.042" r="59.751" gradientTransform="matrix(0.096 -0.0248 0.0245 0.0961 141.2814 119.9893)" gradientUnits="userSpaceOnUse" class="svga-on-canvas-eyesiris-gradient-left-1">
      <stop id="SvgjsStop3630" stop-opacity="1" stop-color="#ffffff" offset="0"/>
      <stop id="SvgjsStop3631" stop-opacity="0" stop-color="#ffffff" offset="1"/>
    </radialGradient>
    <radialGradient id="SvgjsRadialGradient3633" cx="-582.838" cy="-519.099" r="59.745" gradientTransform="matrix(0.0991 8.856319e-004 -0.0011 0.0991 131.1134 135.9855)" gradientUnits="userSpaceOnUse" class="svga-on-canvas-eyesiris-gradient-left-2">
      <stop id="SvgjsStop3634" stop-opacity="1" stop-color="#ffffff" offset="0"/>
      <stop id="SvgjsStop3635" stop-opacity="0" stop-color="#ffffff" offset="1"/>
    </radialGradient>
    <linearGradient id="SvgjsLinearGradient3639" x1="122.67" y1="88.268" x2="123.606" y2="87.152" gradientTransform="matrix(1 0 0 1 -52 0)" gradientUnits="userSpaceOnUse" class="svga-on-canvas-eyesiris-gradient-left-5">
      <stop id="SvgjsStop3640" stop-opacity="1" stop-color="#ffffff" offset="0"/>
      <stop id="SvgjsStop3641" stop-opacity="0" stop-color="#ffffff" offset="1"/>
    </linearGradient>
    <linearGradient id="SvgjsLinearGradient3643" x1="127.212" y1="82.296" x2="126.463" y2="83.189" gradientTransform="matrix(1 0 0 1 -52 0)" gradientUnits="userSpaceOnUse" class="svga-on-canvas-eyesiris-gradient-left-6">
      <stop id="SvgjsStop3644" stop-opacity="1" stop-color="#ffffff" offset="0"/>
      <stop id="SvgjsStop3645" stop-opacity="0" stop-color="#ffffff" offset="1"/>
    </linearGradient>
    <linearGradient id="SvgjsLinearGradient3647" x1="129.636" y1="79.822" x2="127.91" y2="81.879" gradientTransform="matrix(1 0 0 1 -52 0)" gradientUnits="userSpaceOnUse" class="svga-on-canvas-eyesiris-gradient-left-7">
      <stop id="SvgjsStop3648" stop-opacity="1" stop-color="#ffffff" offset="0"/>
      <stop id="SvgjsStop3649" stop-opacity="0" stop-color="#ffffff" offset="1"/>
    </linearGradient>
    <radialGradient id="SvgjsRadialGradient3652" cx="-568.654" cy="-521.042" r="59.752" gradientTransform="matrix(0.096 -0.0248 0.0245 0.0961 193.2804 119.9894)" gradientUnits="userSpaceOnUse" class="svga-on-canvas-eyesiris-gradient-right-1">
      <stop id="SvgjsStop3653" stop-opacity="1" stop-color="#ffffff" offset="0"/>
      <stop id="SvgjsStop3654" stop-opacity="0" stop-color="#ffffff" offset="1"/>
    </radialGradient>
    <radialGradient id="SvgjsRadialGradient3656" cx="-582.833" cy="-519.102" r="59.747" gradientTransform="matrix(0.0991 8.856319e-004 -0.0011 0.0991 183.1126 135.9856)" gradientUnits="userSpaceOnUse" class="svga-on-canvas-eyesiris-gradient-right-2">
      <stop id="SvgjsStop3657" stop-opacity="1" stop-color="#ffffff" offset="0"/>
      <stop id="SvgjsStop3658" stop-opacity="0" stop-color="#ffffff" offset="1"/>
    </radialGradient>
    <linearGradient id="SvgjsLinearGradient3662" x1="122.67" y1="88.268" x2="123.606" y2="87.152" gradientUnits="userSpaceOnUse" class="svga-on-canvas-eyesiris-gradient-right-5">
      <stop id="SvgjsStop3663" stop-opacity="1" stop-color="#ffffff" offset="0"/>
      <stop id="SvgjsStop3664" stop-opacity="0" stop-color="#ffffff" offset="1"/>
    </linearGradient>
    <linearGradient id="SvgjsLinearGradient3666" x1="127.212" y1="82.296" x2="126.463" y2="83.189" gradientUnits="userSpaceOnUse" class="svga-on-canvas-eyesiris-gradient-right-6">
      <stop id="SvgjsStop3667" stop-opacity="1" stop-color="#ffffff" offset="0"/>
      <stop id="SvgjsStop3668" stop-opacity="0" stop-color="#ffffff" offset="1"/>
    </linearGradient>
    <linearGradient id="SvgjsLinearGradient3670" x1="129.636" y1="79.822" x2="127.91" y2="81.879" gradientUnits="userSpaceOnUse" class="svga-on-canvas-eyesiris-gradient-right-7">
      <stop id="SvgjsStop3671" stop-opacity="1" stop-color="#ffffff" offset="0"/>
      <stop id="SvgjsStop3672" stop-opacity="0" stop-color="#ffffff" offset="1"/>
    </linearGradient>
    <radialGradient id="SvgjsRadialGradient3730" cx="125.861" cy="84.497" r="10.213" gradientTransform="matrix(-1 0 0 1 200 0)" gradientUnits="userSpaceOnUse" class="svga-on-canvas-eyesback-gradient-left-0">
      <stop id="SvgjsStop3731" stop-opacity="1" stop-color="#ffffff" offset="0"/>
      <stop id="SvgjsStop3732" stop-opacity="1" stop-color="#fdfefe" offset="0.544"/>
      <stop id="SvgjsStop3733" stop-opacity="1" stop-color="#f6f8f9" offset="0.74"/>
      <stop id="SvgjsStop3734" stop-opacity="1" stop-color="#eaeff2" offset="0.879"/>
      <stop id="SvgjsStop3735" stop-opacity="1" stop-color="#d9e3e8" offset="0.992"/>
      <stop id="SvgjsStop3736" stop-opacity="1" stop-color="#d8e2e7" offset="1"/>
    </radialGradient>
    <radialGradient id="SvgjsRadialGradient3738" cx="125.861" cy="84.497" r="10.213" gradientUnits="userSpaceOnUse" class="svga-on-canvas-eyesback-gradient-right-0">
      <stop id="SvgjsStop3739" stop-opacity="1" stop-color="#ffffff" offset="0"/>
      <stop id="SvgjsStop3740" stop-opacity="1" stop-color="#fdfefe" offset="0.544"/>
      <stop id="SvgjsStop3741" stop-opacity="1" stop-color="#f6f8f9" offset="0.74"/>
      <stop id="SvgjsStop3742" stop-opacity="1" stop-color="#eaeff2" offset="0.879"/>
      <stop id="SvgjsStop3743" stop-opacity="1" stop-color="#d9e3e8" offset="0.992"/>
      <stop id="SvgjsStop3744" stop-opacity="1" stop-color="#d8e2e7" offset="1"/>
    </radialGradient>
    <radialGradient id="SvgjsRadialGradient3746" cx="125.861" cy="84.497" r="10.213" gradientTransform="matrix(-1 0 0 1 200 0)" gradientUnits="userSpaceOnUse" class="svga-on-canvas-eyesfront-gradient-left-0">
      <stop id="SvgjsStop3747" stop-opacity="1" stop-color="#ffffff" offset="0"/>
      <stop id="SvgjsStop3748" stop-opacity="1" stop-color="#fdfefe" offset="0.544"/>
      <stop id="SvgjsStop3749" stop-opacity="1" stop-color="#f6f8f9" offset="0.74"/>
      <stop id="SvgjsStop3750" stop-opacity="1" stop-color="#eaeff2" offset="0.879"/>
      <stop id="SvgjsStop3751" stop-opacity="1" stop-color="#d9e3e8" offset="0.992"/>
      <stop id="SvgjsStop3752" stop-opacity="1" stop-color="#d8e2e7" offset="1"/>
    </radialGradient>
    <radialGradient id="SvgjsRadialGradient3756" cx="123.755" cy="83.738" fx="136.189" fy="83.773" r="17.684" gradientTransform="matrix(0.9998 0.0208 0.0166 -0.7998 -48.8769 148.1393)" gradientUnits="userSpaceOnUse" class="svga-on-canvas-eyesfront-gradient-left-3">
      <stop id="SvgjsStop3757" stop-opacity="1" stop-color="#e38e72" offset="0"/>
      <stop id="SvgjsStop3758" stop-opacity="0.3" stop-color="#e38e72" offset="0.7"/>
      <stop id="SvgjsStop3759" stop-opacity="0" stop-color="#f2aa92" offset="1"/>
    </radialGradient>
    <radialGradient id="SvgjsRadialGradient3761" cx="122.636" cy="100.958" r="25.824" gradientTransform="matrix(-0.8746 -0.4848 -0.3636 0.656 221.3328 94.1879)" gradientUnits="userSpaceOnUse" class="svga-on-canvas-eyesfront-gradient-left-4">
      <stop id="SvgjsStop3762" stop-opacity="0" stop-color="#000000" offset="0.94"/>
      <stop id="SvgjsStop3763" stop-opacity="0.2" stop-color="#000000" offset="1"/>
    </radialGradient>
    <radialGradient id="SvgjsRadialGradient3767" cx="125.861" cy="84.497" r="10.213" gradientUnits="userSpaceOnUse" class="svga-on-canvas-eyesfront-gradient-right-0">
      <stop id="SvgjsStop3768" stop-opacity="1" stop-color="#ffffff" offset="0"/>
      <stop id="SvgjsStop3769" stop-opacity="1" stop-color="#fdfefe" offset="0.544"/>
      <stop id="SvgjsStop3770" stop-opacity="1" stop-color="#f6f8f9" offset="0.74"/>
      <stop id="SvgjsStop3771" stop-opacity="1" stop-color="#eaeff2" offset="0.879"/>
      <stop id="SvgjsStop3772" stop-opacity="1" stop-color="#d9e3e8" offset="0.992"/>
      <stop id="SvgjsStop3773" stop-opacity="1" stop-color="#d8e2e7" offset="1"/>
    </radialGradient>
    <radialGradient id="SvgjsRadialGradient3777" cx="123.755" cy="83.738" fx="136.19" fy="83.773" r="17.685" gradientTransform="matrix(-0.9998 0.0208 -0.0166 -0.7998 248.8769 148.1393)" gradientUnits="userSpaceOnUse" class="svga-on-canvas-eyesfront-gradient-right-3">
      <stop id="SvgjsStop3778" stop-opacity="1" stop-color="#e38e72" offset="0"/>
      <stop id="SvgjsStop3779" stop-opacity="0.3" stop-color="#e38e72" offset="0.7"/>
      <stop id="SvgjsStop3780" stop-opacity="0" stop-color="#f2aa92" offset="1"/>
    </radialGradient>
    <radialGradient id="SvgjsRadialGradient3782" cx="122.636" cy="100.958" r="25.824" gradientTransform="matrix(0.8746 -0.4848 0.3636 0.656 -21.3328 94.1879)" gradientUnits="userSpaceOnUse" class="svga-on-canvas-eyesfront-gradient-right-4">
      <stop id="SvgjsStop3783" stop-opacity="0" stop-color="#000000" offset="0.94"/>
      <stop id="SvgjsStop3784" stop-opacity="0.2" stop-color="#000000" offset="1"/>
    </radialGradient>
    <linearGradient id="SvgjsLinearGradient3798" x1="100" y1="141" x2="100" y2="138" gradientUnits="userSpaceOnUse" class="svga-on-canvas-mouth-gradient-single-0">
      <stop id="SvgjsStop3799" stop-opacity="1" stop-color="#ea9c82" offset="0.1"/>
      <stop id="SvgjsStop3800" stop-opacity="1" stop-color="#e38e72" offset="1"/>
    </linearGradient>
    <linearGradient id="SvgjsLinearGradient3824" x1="100" y1="171" x2="100" y2="128" gradientUnits="userSpaceOnUse" class="svga-on-canvas-chinshadow-gradient-single-0">
      <stop id="SvgjsStop3825" stop-opacity="0.8" stop-color="#e38e72" offset="0"/>
      <stop id="SvgjsStop3826" stop-opacity="1" stop-color="#c45e3b" offset="0.7"/>
    </linearGradient>
  </defs>
  <g id="svga-group-wrapper">
    <g id="svga-group-backs-single">
      <path id="SvgjsPath3694" d="M225,225H-25V-25h250V225z" fill="#e5fcc2" stroke-width="none" opacity="1" stroke="none"/>
      <path id="SvgjsPath3695" d="M55.036,79.068h-29v-26h29V79.068z M84.203,33H43.536v33.068h40.667V33z M63.869,99.999H100V56.401H63.869V99.999z M76.869,95.734H40.536v31.333h36.333V95.734z M175.536,13.401H126v56.667h49.536V13.401z M119.536,39.068h-12v14h12V39.068z M155.818-4.266h-48.282v28.667h48.282V-4.266z M100,5.734H74v36h26V5.734z M40.536,8.401h-14.5v15.333h14.5V8.401z M21.171,33H-1.246v34.434h22.417V33z M47.536,99.999H8.203v43.735h39.333V99.999z M26.036,173.734h44.167v-26H26.036V173.734z M131.536,163.734H100.5v22.667h31.037V163.734z M206.792,141.067h-28.718v34h28.718V141.067z M159.536,156.491h-24.667v22.667h24.667V156.491z M183.178,111.733h-35.975v40.668h35.975V111.733z M192.202,181.734h-44.999v29.333h44.999V181.734z M43.536,163.734H-5.262v44h48.797V163.734z M202.869,53.068h-33.166v26h33.166V53.068z M183.178,90.401h-14.359v14.835h14.359V90.401z M-5.262,118h27.339V79.299H-5.262V118z M33.493-5.599l-49.291,1.333V33h49.291V-5.599z M211.536-4.266h-32v40.667h32V-4.266z M61-8.266H47.536v29.333H61V-8.266z M208.869,97.818h-32.871v26.667h32.871V97.818z" fill="#ceed9f" stroke="#edffd1" stroke-width="0.5" opacity="1"/>
    </g>
    <g id="svga-group-humanwrap-move" transform="matrix(1,0,0,1,0,0)">
      <g id="svga-group-humanwrap" transform="matrix(1,0,0,1,0,0)">
        <g id="svga-group-hair-back-move" transform="matrix(1,0,0,1,0,0)">
          <g id="svga-group-hair-back" transform="matrix(1,0,0,1,0,0)">
            <path id="SvgjsPath3707" d="M100.5,100.5h-1v-1h1V100.5z" fill="#b7513b" stroke-width="none" opacity="1" stroke="none"/>
          </g>
        </g>
        <g id="svga-group-humanbody-single">
          <path id="SvgjsPath3547" d="M195.417 199.778c-2.196-4.746-8.195-11.779-14.86-13.722 -8.239-2.403-26.837-5.308-33.733-6.923 -5.528-1.296-16.662-11.294-20.564-14.65 -0.7-0.6-1.273-1.839-1.287-2.76 -0.139-10.864 4.195-39.724 4.195-39.724H100 70.833c0 0 4.334 28.859 4.193 39.724 -0.011 0.921-0.587 2.16-1.285 2.76 -3.902 3.356-15.036 13.354-20.564 14.65 -6.897 1.615-25.495 4.619-33.733 7.022 -6.667 1.942-12.664 8.876-14.86 13.622 -3.708 8.008-4.584 22.5-4.584 35h100 100C200 222.278 199.123 207.786 195.417 199.778z" fill="#f2aa92" stroke-width="none" opacity="1" stroke="none"/>
          <path id="SvgjsPath3548" d="M159.156 184.058c24.342 3.542 34.586 8.708 37.794 50.721H200c0-12.5-0.877-26.992-4.583-35 -2.196-4.746-8.195-11.779-14.86-13.722 -8.239-2.403-26.837-5.308-33.733-6.923 -5.528-1.296-18.242-12.069-21.643-16.35 3.36 4.704 12.791 15.605 21.054 18.46C150.188 182.61 153.48 183.232 159.156 184.058zM53.766 181.244c8.263-2.854 17.693-13.756 21.054-18.46 -3.4 4.28-16.114 15.054-21.643 16.35 -6.896 1.615-25.494 4.619-33.733 7.022 -6.665 1.942-12.664 8.876-14.86 13.622 -3.706 8.008-4.583 22.5-4.583 35h3.05c3.188-41.744 13.475-47.183 37.794-50.721C46.52 183.232 49.813 182.61 53.766 181.244z" fill="#ffc6b3" stroke-width="none" opacity="1" stroke="none"/>
          <path id="SvgjsPath3549" d="M95.646 197.62c0 0-5.074-1.609-7.083-2.379 -10.449-4.009-44.395-6.607-44.395-6.607s35.754 1.419 43.644 2.779c-0.458-4.767-3.017-20.004-3.017-20.004s5.149 16.815 6.409 21.057C91.878 194.734 95.646 197.62 95.646 197.62zM106.445 196.278c-0.089 0.073-0.191 0.168-0.302 0.268C106.256 196.461 106.358 196.372 106.445 196.278zM95.646 197.62c0 0 2.893 2.992 4.347 3.03 1.91 0.051 4.828-2.899 6.151-4.104 -1.265 0.957-4.159 1.391-5.31 1.436C99.504 198.033 95.646 197.62 95.646 197.62zM116.664 190.101c-1.545 0.248-4.386 0.789-4.386 0.789l2.287-14.89c-0.646 3.071-4.474 16.211-8.12 20.278 1.91-1.616 6.158-2.391 8.324-2.704 10.236-1.484 10.232-1.483 41.062-4.94C155.831 188.634 126.76 188.479 116.664 190.101z" fill="#e38e72" stroke-width="none" opacity="1" stroke="none"/>
          <path id="SvgjsPath3550" d="M195.417 199.778c-2.196-4.746-8.195-11.779-14.86-13.722 -8.239-2.403-26.837-5.308-33.733-6.923 -5.528-1.296-16.662-11.294-20.564-14.65 -0.7-0.6-1.273-1.839-1.287-2.76 -0.139-10.864 4.195-39.724 4.195-39.724H100 70.833c0 0 4.334 28.859 4.193 39.724 -0.011 0.921-0.587 2.16-1.285 2.76 -3.902 3.356-15.036 13.354-20.564 14.65 -6.897 1.615-25.495 4.619-33.733 7.022 -6.667 1.942-12.664 8.876-14.86 13.622 -3.708 8.008-4.584 22.5-4.584 35h100 100C200 222.278 199.123 207.786 195.417 199.778z" fill="none" stroke="#c45e3b" stroke-width="1.5" opacity="1"/>
        </g>
        <g id="svga-group-chinshadow-single">
          <path id="SvgjsPath3823" d="M109.536 170.861c4.446-1.662 9.623-5.664 14.692-10.57 0.134-7.874 1.927-22.141 3.129-30.907 -15.727-1.816-38.988-1.81-54.712 0.013 1.201 8.766 2.992 23.017 3.125 30.887 5.071 4.909 10.251 8.915 14.699 10.578C94.942 172.534 105.063 172.534 109.536 170.861z" fill="url(#SvgjsLinearGradient3824)" opacity="1"/>
        </g>
        <g id="svga-group-clothes-single">
          <path id="SvgjsPath3809" d="M-5.95 234.616c-0.097-1.305 0.096-7.32 0.182-9.162 1.676-34.52 9.815-34.842 45.602-46.602 17.162-5.637 21.952-7.468 28.06-21.871 1.732-4.086 3.229-7.618 6.451-8.872 16.41 10.047 30.559 9.724 50.891 1.363 3.773 0.586 4.934 5.929 5.811 9.79 5.64 23.845 40.362 18.461 55.969 28.298 16.196 8.864 16.935 38.516 16.775 47.393 0.004 0.026 0.006 0.046 0.007 0.065C182.728 236.014 20.313 236.492-5.95 234.616z" fill="#152c5e" stroke-width="none" opacity="1" stroke="none"/>
          <path id="SvgjsPath3810" d="M182.492 222.599c0.909-12.229 1.182-21.815 4.462-33.152 -4.75 17.574 1.584 31.396-7.798 41.009C180.333 227.314 182.202 226.501 182.492 222.599zM18.51 206.248c-1.726-4.69-3.941-10.92-4.77-18.307 -0.301 0.161-0.422-0.745-0.714-0.586 1.192 13.22 5.083 20.817 6.268 40.019C19.107 220.494 20.157 210.726 18.51 206.248zM123.111 150.582c-0.624 0.172-1.25 0.928-1.879 1.073 8.78 8.904 3.019 12.265 15.854 27.903 0.357-0.199 1.519-0.911 2.917-1.814C131.547 172.431 129.646 159.234 123.111 150.582zM127.984 178.849c0.48 1.599 1.182 2.956 1.996 4.292 -0.49 0.207-0.975 0.433-1.471 0.623 -2.536-3.662-4.971-7.31-6.589-14.88 -1.671-7.814-0.948-6.651-6.375-15.19 0.343-0.058 1.023-0.493 1.554-0.587C122.234 161.005 124.345 169.755 127.984 178.849zM136.27 180.046c-0.518 0.298-1.04 0.58-1.564 0.862 -7.207-8.34-10.05-18.66-14.846-28.339 0.329-0.071 0.974-0.979 1.275-1.044 4.255 5.021 4.237 7.511 5.529 11.985C128.348 169.113 132.925 176.335 136.27 180.046zM112.113 155.051c3.854 11.032 6.377 19.741 7.078 31.438 -0.504 0.103-1.006 0.203-1.511 0.289 -0.698-6.112-1.601-12.464-1.867-13.927 -1.064-5.854-2.984-13.68-4.724-17.654C111.433 155.154 111.771 155.1 112.113 155.051zM127.576 184.12c-0.596 0.221-1.197 0.421-1.799 0.618 -6.32-8.721-6.205-20.123-11.174-31.226 0.194-0.03 0.499-0.051 0.693-0.08 5.517 10.376 3.757 7.383 6.258 17.906C122.863 176.839 125.571 181.785 127.576 184.12zM116.725 186.932c-0.396 0.063-0.801 0.106-1.202 0.158 -1.437-11.685-2.015-20.899-5.835-31.754 0.268-0.024 0.536-0.04 0.802-0.066C113.948 164.7 115.354 178.074 116.725 186.932zM90.506 155.457C87 166.149 86.255 174.5 85.584 185.779c-0.396-0.076-0.796-0.149-1.187-0.229 0.301-9.598 1.511-21.52 5.259-30.177C89.94 155.404 90.223 155.426 90.506 155.457zM73.665 182.298c-0.45-0.18-0.903-0.353-1.352-0.55 5.427-7.417 7.915-19.667 8.576-29.212 0.356 0.099 0.712 0.182 1.067 0.271C82.212 164.065 78.521 172.691 73.665 182.298zM89.11 155.313c-4.297 8.516-5.687 20.342-5.506 30.059 -0.343-0.077-0.664-0.163-0.999-0.241 -0.362-11.391 0.919-20.313 5.481-30.088C88.43 155.086 88.762 155.276 89.11 155.313zM63.765 177.669c-0.565-0.305-1.131-0.608-1.691-0.924 3.012-2.229 6.067-5.612 8.114-9.492 1.842-3.49 6.022-13.854 6.88-17.206 0.288 0.127 0.583 0.226 0.875 0.336C75.729 161.135 71.003 170.933 63.765 177.669zM71.647 181.475c-0.6-0.258-1.188-0.543-1.782-0.813 5.091-9.12 7.394-19.314 8.429-30.16 0.66 0.242 1.321 1.667 1.983 1.856C78.754 162.773 77.147 172.728 71.647 181.475zM76.713 149.903c-0.697 2.172-1.653 4.229-2.629 6.328 -2.326 5.216-4.664 13.816-12.697 20.111 -0.582-0.331-1.159-0.674-1.736-1.018 7.396-6.788 11.247-16.835 15.192-26.102C75.445 149.477 76.07 149.619 76.713 149.903z" fill="#0a1f4f" stroke-width="none" opacity="1" stroke="none"/>
          <path id="SvgjsPath3811" d="M57.333 175.454l-2.069-1.538c-22.055 9.523-41.926 2.852-56.539 29.547 -3.991 7.288-4.545 18.273-4.545 31.377C1.369 178.39 18.115 196.628 57.333 175.454zM196.71 207.091c5.439 11.127 4.946 21.213 7.122 27.749 0-13.104-2.448-23.057-5.272-30.988 -8.032-22.559-35.624-20.007-53.664-27.794l-2.069 1.536C164.723 190.902 184.014 181.115 196.71 207.091z" fill="#233b6d" stroke-width="none" opacity="1" stroke="none"/>
          <path id="SvgjsPath3812" d="M187.067 187.455c-13.433-10.616-50.315-4.529-55.917-28.223 -0.701-3.026-1.827-9.248-5.936-9.876 -0.202 0.047-0.816-0.155-0.815-0.155 -16.182 7.008-33.106 9.09-50.09-1.202 -7.632 2.969-5.548 18.164-19.974 25.281 -6.29 3.161-14.488 3.445-26.402 7.406 -29.668 9.339-33.597 21.576-33.808 44.76 -0.078 1.682-0.293 8.174-0.172 9.284 29.106 2.102 194.721 1.151 209.945 0.402 0.011-0.057 0.011-0.119 0-0.178C204.205 217.771 202.179 196.583 187.067 187.455zM125.622 150.046c7.731 2.875-0.892 16.031 17.001 25.962 -2.362 1.614-4.969 3.234-5.537 3.551 -12.835-15.639-6.916-17.92-15.212-27.548C123.412 151.239 124.185 150.545 125.622 150.046zM121.456 152.115c4.254 5.024 3.916 6.921 5.208 11.396 1.684 5.603 6.261 12.824 9.605 16.535 -2.501 1.44-5.099 2.693-7.76 3.718 -2.536-3.662-4.731-7.344-6.481-14.88 -1.543-6.639-1.004-7.17-6.162-15.076C116.939 153.64 119.765 152.504 121.456 152.115zM115.404 153.906c5.516 10.378 3.649 6.909 6.15 17.433 1.309 5.5 4.017 10.446 6.021 12.781 -3.23 1.19-6.547 2.086-9.896 2.657 -0.698-6.112-1.518-12.459-1.76-13.927 -1.073-6.498-3.092-13.68-4.831-17.654C112.464 155.04 114.042 154.132 115.404 153.906zM110.489 155.27c3.459 9.431 4.864 22.805 6.235 31.662 -3.158 0.499-6.508 0.68-9.638 0.68 -0.001-0.03-2.036-18.832-2.834-31.169C106.43 156.083 108.718 155.811 110.489 155.27zM103.717 156.468c0.053 13.91 1.025 17.525 2.586 31.154 -3.744 0.013-7.48-0.178-11.226-0.536 2.538-23.363 3.81-30.534 3.81-30.534C100.866 156.552 102.659 156.505 103.717 156.468zM98.222 156.552c-2.98 18.285-3.49 22.712-3.842 30.464 -3.423-0.319-6.789-0.796-9.981-1.466 0.301-9.598 1.511-21.52 5.259-30.177C92.501 155.697 95.367 156.54 98.222 156.552zM89.11 155.313c-4.297 8.516-5.687 20.342-5.506 30.059 -4.157-0.918-7.729-2.095-11.291-3.623 5.427-7.417 7.915-19.667 8.576-29.212C83.596 153.271 86.459 154.663 89.11 155.313zM80.277 152.358c-1.523 10.415-3.13 20.369-8.629 29.116 -3.263-1.392-6.461-2.979-9.574-4.729 3.012-2.229 6.067-5.612 8.114-9.492 1.842-3.49 5.915-13.619 6.772-16.967C78.012 150.739 79.204 152.049 80.277 152.358zM74.094 148.831c0.827 0.561 1.599 0.903 2.511 1.312 -0.697 2.168-1.545 3.99-2.521 6.089 -2.326 5.216-4.664 13.816-12.697 20.111 -1.492-0.848-2.973-1.743-4.422-2.682C69.393 166.228 67.293 152.256 74.094 148.831zM-5.575 234.432c0.146-4.763 1.287-20.803 3.861-28.177 3.32-9.512 8.278-13.597 14.589-17.326 -0.432 11.225 4.791 15.313 5.13 28.729 0.096 4.063 0.601 8.052 1.213 12.056 -0.28-4.207-0.397-8.378-0.376-12.595 0.062-12.207-4.884-17.006-4.884-28.632 13.355-7.608 35.654-10.696 41.794-14.135 14.15 10.354 27.314 15.818 50.819 15.665 17.036 0 26.96-4.89 37.458-13.234 14.42 6.477 31.095 4.024 42.352 12.997 -1.776 5.867-2.995 8.928-3.326 12.126 -0.768 7.53 0.372 12.885-0.602 19.802 -0.569 4.015-3.35 6.969-4.101 10.913 2.186-7.389 6.127-4.682 5.646-22.101 -0.276-9.824 0.51-10.079 2.982-20.337 12.328 8.578 15.5 28.732 16.197 44.771C167.506 234.695 8.491 234.762-5.575 234.432z" fill="#000f30" stroke-width="none" opacity="1" stroke="none"/>
        </g>
        <g id="svga-group-head" transform="matrix(1,0,0,1,0,0)">
          <g id="svga-group-ears-left-move" transform="matrix(1,0,0,1,0,0)">
            <g id="svga-group-ears-left" transform="matrix(1,0,0,1,0,0)">
              <path id="SvgjsPath3685" d="M45.671 84.344c-1.485-2.462-6.327-9.199-10.031-8.254 -3.012 0.772-2.973 4.971-3.206 7.455 -0.34 3.644-0.464 9.992 0.525 12.568 0.951 2.473 3.96 7.252 5.828 9.075 2.299 2.235 5.97 9.358 6.422 10.097 0.711 1.168 2.137 2.84 4.325 2.708 3.071-0.185 5.724-3.087 5.965-4.485C56.8 105.918 49.536 90.75 45.671 84.344z" fill="#f2aa92" stroke="#c45e3b" stroke-width="1.5" opacity="1"/>
              <path id="SvgjsPath3686" d="M44.2 99.341c-0.143-0.563 0.007-1.513 0.154-2.429 0.133-0.835 0.258-1.624 0.182-2.182 -0.289-2.09-1.915-6.06-2.976-8.212 -1.223-2.476-3.199-5.595-5.679-6.399 -1.024-0.333-1.699 0.065-2.089 0.468 -0.288 0.296-0.353 0.645-0.259 0.687 0.095 0.041 0.307-0.248 0.617-0.519 0.254-0.222-0.508-0.04 0 0 -0.205 1.04-0.865 6.302-0.41 10.143 0.358 3.022 1.05 5.279 1.263 5.617 0.031 0.356 0.083 0.705 0.16 1.043 1.002 4.41 7.518 10.177 9.034 11.82 0.28 0.303 0.574 0.483 0.646 0.409s-0.101-0.373-0.379-0.678c-1.498-1.632-7.971-7.381-8.939-11.635 -1.027-4.514 3.912-11.207 4.699-12.623 0.401 0.665 0.742 1.303 1.004 1.835 0.207 0.417 0.434 0.906 0.67 1.435 -0.463 0.738-5.118 6.127-3.934 10.441 0.438 1.591 3.822 3.642 5.131 4.203 0.72 0.31 0.99 0.772 1.304 1.306 0.364 0.624 0.033 2.229 1.23 2.739 0.244 0.104 0.464 0.146 0.659 0.146 0.338 0 0.594-0.13 0.783-0.284 0.02 0.271 0.019 0.619 0.009 0.941 -0.012 0.418 0.047 0.609 0.148 0.617 0.103 0.009 0.21-0.174 0.223-0.587 0.017-0.51 0.014-1.141-0.077-1.444 -0.269-0.889-1.088-1.894-1.957-2.957C44.563 102.197 44.422 100.213 44.2 99.341zM34.969 95.432c-2.348-6.923 1.283-13.229 1.81-14.179 1.012 0.399 2.562 2.193 3.221 3.235C39.52 85.321 35.067 90.775 34.969 95.432zM45.772 106.464c-1.084-0.462-0.706-1.984-1.056-2.584 -0.318-0.542-0.646-1.102-1.479-1.46 -0.18-0.078-0.379-0.196-0.583-0.332 -2.682-6.075 0.293-8.73 1.039-9.273 0.229 0.742 0.399 1.423 0.476 1.97 0.068 0.5-0.059 1.298-0.181 2.068 -0.153 0.955-0.31 1.944-0.147 2.584 0.244 0.953 0.411 2.97 1.291 4.048 0.781 0.956 1.583 1.942 1.857 2.746C46.871 106.391 46.5 106.775 45.772 106.464z" fill="#c45e3b" stroke-width="none" opacity="1" stroke="none"/>
            </g>
          </g>
          <g id="svga-group-ears-right-move" transform="matrix(1,0,0,1,0,0)">
            <g id="svga-group-ears-right" transform="matrix(1,0,0,1,0,0)">
              <path id="SvgjsPath3687" d="M154.066 84.344c1.486-2.462 6.328-9.199 10.031-8.254 3.012 0.772 2.973 4.971 3.207 7.455 0.34 3.644 0.463 9.992-0.525 12.568 -0.951 2.473-3.961 7.252-5.828 9.075 -2.299 2.235-5.971 9.358-6.422 10.097 -0.711 1.168-2.137 2.84-4.326 2.708 -3.07-0.185-5.723-3.087-5.965-4.485C142.938 105.918 150.203 90.75 154.066 84.344z" fill="#f2aa92" stroke="#c45e3b" stroke-width="1.5" opacity="1"/>
              <path id="SvgjsPath3688" d="M154.322 103.243c-0.869 1.063-1.688 2.068-1.957 2.957 -0.092 0.304-0.094 0.935-0.078 1.444 0.014 0.413 0.121 0.596 0.225 0.587 0.102-0.008 0.16-0.199 0.148-0.617 -0.01-0.322-0.012-0.67 0.008-0.941 0.189 0.154 0.445 0.284 0.783 0.284 0.195 0 0.416-0.042 0.66-0.146 1.195-0.511 0.865-2.116 1.229-2.739 0.314-0.534 0.584-0.997 1.305-1.306 1.309-0.561 4.693-2.611 5.131-4.203 1.184-4.314-3.471-9.704-3.934-10.441 0.234-0.529 0.463-1.018 0.668-1.435 0.264-0.532 0.604-1.171 1.006-1.835 0.787 1.416 5.725 8.108 4.699 12.623 -0.969 4.254-7.441 10.003-8.939 11.635 -0.279 0.305-0.453 0.604-0.381 0.678 0.074 0.074 0.367-0.106 0.646-0.409 1.516-1.643 8.031-7.41 9.033-11.82 0.078-0.338 0.131-0.687 0.162-1.043 0.211-0.337 0.904-2.594 1.262-5.617 0.455-3.841-0.205-9.103-0.41-10.143 0.508-0.04-0.254-0.222 0 0 0.311 0.271 0.523 0.56 0.617 0.519 0.094-0.042 0.029-0.39-0.258-0.687 -0.391-0.403-1.066-0.801-2.09-0.468 -2.48 0.804-4.457 3.923-5.68 6.399 -1.061 2.152-2.686 6.122-2.975 8.212 -0.076 0.558 0.049 1.347 0.182 2.182 0.146 0.916 0.297 1.866 0.154 2.429C155.316 100.213 155.176 102.197 154.322 103.243zM159.738 84.488c0.66-1.042 2.209-2.835 3.221-3.235 0.527 0.95 4.158 7.256 1.811 14.179C164.672 90.775 160.219 85.321 159.738 84.488zM152.75 106.229c0.273-0.804 1.076-1.79 1.857-2.746 0.879-1.078 1.047-3.095 1.291-4.048 0.162-0.64 0.006-1.629-0.146-2.584 -0.123-0.77-0.25-1.568-0.182-2.068 0.076-0.547 0.246-1.228 0.475-1.97 0.746 0.543 3.721 3.199 1.039 9.273 -0.203 0.136-0.402 0.254-0.584 0.332 -0.832 0.358-1.16 0.918-1.479 1.46 -0.35 0.6 0.029 2.123-1.055 2.584C153.238 106.775 152.867 106.391 152.75 106.229z" fill="#c45e3b" stroke-width="none" opacity="1" stroke="none"/>
            </g>
          </g>
          <g id="svga-group-faceshape-wrap" transform="matrix(1,0,0,1,0,0)">
            <g id="svga-group-faceshape-single">
              <path id="SvgjsPath3820" d="M144.004 126.306c-6.87 10.846-23.072 30.329-34.468 34.563 -4.474 1.663-14.594 1.663-19.067 0 -11.396-4.235-27.596-23.719-34.467-34.563 -6.753-10.657-14.852-48.287-14.863-48.341 -1.3-4.961-1.996-10.168-2.004-15.538C39.082 28.614 66.289 1.169 99.907 1.116c33.621-0.053 60.913 27.306 60.963 61.119 0.009 5.37-0.669 10.579-1.952 15.544C158.901 77.832 150.78 115.606 144.004 126.306z" fill="#f2aa92" stroke-width="none" opacity="1" stroke="none"/>
              <path id="SvgjsPath3821" d="M110.152 1.978c26.994 6.303 47.097 30.644 47.052 59.708 -0.009 5.369-0.704 10.577-2.004 15.537 -0.012 0.054-7.377 37.684-14.13 48.341 -6.872 10.844-22.339 29.588-33.734 33.823 -1.476 0.549-5.027 1.103-7.334 1.103 -2.307 0-5.857-0.554-7.333-1.103 -11.396-4.235-26.863-22.979-33.734-33.823 -6.753-10.657-14.119-48.287-14.13-48.341 -1.3-4.96-1.996-10.168-2.004-15.537C42.756 32.622 62.857 8.281 89.853 1.978 61.03 6.845 39.087 32.061 39.134 62.427c0.008 5.369 0.704 10.576 2.004 15.538 0.012 0.054 8.11 37.684 14.863 48.341 6.871 10.845 23.072 30.328 34.467 34.563 2.239 0.833 5.889 1.247 9.537 1.244 3.646 0.001 7.292-0.411 9.53-1.244 11.396-4.235 27.596-23.719 34.468-34.563 6.753-10.657 14.852-48.287 14.862-48.341 1.3-4.961 1.996-10.168 2.004-15.538C160.918 32.061 138.975 6.845 110.152 1.978z" fill="#ea9c82" stroke-width="none" opacity="1" stroke="none"/>
              <path id="SvgjsPath3822" d="M144.004 126.306c-6.87 10.846-23.072 30.329-34.468 34.563 -4.474 1.663-14.594 1.663-19.067 0 -11.396-4.235-27.596-23.719-34.467-34.563 -6.753-10.657-14.852-48.287-14.863-48.341 -1.3-4.961-1.996-10.168-2.004-15.538C39.082 28.614 66.289 1.169 99.907 1.116c33.621-0.053 60.913 27.306 60.963 61.119 0.009 5.37-0.669 10.579-1.952 15.544C158.901 77.832 150.78 115.606 144.004 126.306z" fill="none" stroke="#c45e3b" stroke-width="1.5" opacity="1"/>
            </g>
          </g>
          <g id="svga-group-mouth-single-move" transform="matrix(1,0,0,1,0,0)">
            <g id="svga-group-mouth-single" transform="matrix(1,0,0,1,0,0)">
              <path id="SvgjsPath3797" d="M100.182 141c-5.713 0.011-6.89-2.654-6.89-2.654 5.5 0.355 8.269 0.352 13.77-0.023C107.062 138.322 105.202 140.99 100.182 141z" fill="url(#SvgjsLinearGradient3798)" opacity="1"/>
              <path id="SvgjsPath3801" d="M84.557 134.475c3.326-0.44 6.44-2.644 11.501-3.439 2.373-0.373 2.949 0.4 4.054 0.414 1.184 0.015 2.717-0.69 4.031-0.512 6.125 0.831 5.396 2.467 11.315 3.352 -3.168 1.46-4.501 5.455-15.556 5.446C89.159 139.727 87.1 135.601 84.557 134.475z" fill="#ff5027" stroke-width="none" opacity="1" stroke="none"/>
              <path id="SvgjsPath3802" d="M91.318 135.048c0.446-0.532 5.698-1.207 8.911-1.206 3.404 0.001 8.715 0.481 9.01 1.19C104.432 135.155 95.022 135.133 91.318 135.048z" fill="#ffffff" stroke-width="none" opacity="1"/>
              <path id="SvgjsPath3803" d="M115.252 134.173c-1.96 0.192-3.961 0.548-5.968 0.681 -1.058-0.726-6.033-1.156-9.083-1.152 -2.683 0.003-6.974 0.512-8.549 1.05 -0.276 0.07-0.514 0.153-0.664 0.241 -3.775-0.211-6.196-0.68-6.259-0.686 -0.266-0.026-0.483 0.081-0.48 0.239 0.004 0.146 0.226 0.106 0.472 0.145 0.018 0.003 0.068 0.01 0.051 0.007 10.096 1.27 20.364 1.202 30.432-0.13 0.264-0.035 0.521 0.001 0.525-0.158C115.733 134.251 115.517 134.146 115.252 134.173zM99.987 135.159c-2.683-0.001-5.252-0.088-7.143-0.148 0.041-0.115 0.062-0.175 0.102-0.29 1.82-0.395 4.965-0.732 7.282-0.735 2.312-0.003 5.359 0.218 7.201 0.59 0.062 0.171 0.094 0.256 0.155 0.426C105.521 135.069 102.864 135.16 99.987 135.159z" fill="#d12800" stroke-width="none" opacity="1" stroke="none"/>
              <path id="SvgjsPath3804" d="M99.798 138.56c-3.813-0.007-8.469-0.729-11.573-2.26 7.157 0.231 15.488 0.269 22.638-0.005C107.589 137.975 103.873 138.573 99.798 138.56zM100.153 132.96c3.904-0.006 7.402 0.312 10.986 0.965 -1.783-0.779-3.208-1.623-5.388-1.969 -0.978-0.154-1.549-0.346-2.513-0.166 -0.973 0.182-2.557 0.313-3.323 0.275 -1.978-0.096-2.997-0.313-4.496-0.19 -2.489 0.204-3.257 1.008-5.215 1.847C93.877 133.444 96.308 132.966 100.153 132.96z" fill="#ff5a34" stroke-width="none" opacity="1" stroke="none"/>
              <path id="SvgjsPath3805" d="M93.404 136.958c2.576-0.154 11.612-0.211 13.539-0.091C103.598 138.01 98.311 138.664 93.404 136.958z" fill="#ff6541" stroke-width="none" opacity="1" stroke="none"/>
            </g>
          </g>
          <g id="svga-group-eyes-left-move" transform="matrix(1,0,0,1,0,0)">
            <g id="svga-group-eyes-left" transform="matrix(1,0,0,1,0,0)">
              <g id="svga-group-eyesback-left">
                <path id="SvgjsPath3729" d="M60.942 83.152c-0.216 2.76 1.682 6.038 12.492 6.964 9.553 0.818 13.62-0.758 13.903-3.902s-3.407-6.987-12.88-7.482C66.026 78.292 61.188 80.005 60.942 83.152z" fill="url(#SvgjsRadialGradient3730)" opacity="1"/>
              </g>
              <g id="svga-group-eyesiriswrapper-left" transform="matrix(1,0,0,1,0.5,0.25)">
                <g id="svga-group-eyesiriscontrol-left" transform="matrix(1,0,0,1,0,0)">
                  <g id="svga-group-eyesiris-left" transform="matrix(1,0,0,1,0,0)">
                    <path id="SvgjsPath3787" d="M79.788 85.588c-0.869 3.192-4.162 5.073-7.361 4.196 -3.197-0.876-5.084-4.178-4.214-7.371 0.869-3.195 4.168-5.076 7.365-4.198C78.772 79.09 80.659 82.392 79.788 85.588z" fill="#4e60a3" stroke="#152975" stroke-width="0.5" opacity="1"/>
                    <path id="SvgjsPath3788" d="M78.855 85.662c-0.849 2.452-3.407 3.881-5.899 3.199 -2.3-0.631-3.752-2.838-3.563-5.171 0.853-0.067 1.787-0.087 2.756-0.04 -0.01 0.033-0.027 0.062-0.036 0.096 -0.306 1.125 0.407 2.305 1.592 2.63 1.189 0.326 2.401-0.326 2.707-1.451 0.039-0.147 0.06-0.294 0.065-0.439C77.29 84.782 78.088 85.165 78.855 85.662z" fill="#6777b2" stroke-width="none" opacity="1"/>
                    <path id="SvgjsPath3789" d="M74.813 82.21c-1.203-0.344-2.429 0.342-2.739 1.54 -0.311 1.191 0.412 2.438 1.614 2.783 1.204 0.345 2.43-0.342 2.741-1.534C76.742 83.801 76.016 82.555 74.813 82.21zM75.075 86.442c-0.5 0.156-1.017-0.051-1.154-0.462 -0.133-0.411 0.163-0.867 0.667-1.019 0.503-0.156 1.019 0.051 1.157 0.459C75.881 85.831 75.582 86.287 75.075 86.442z" fill="#000000" stroke-width="none" opacity="0.9"/>
                    <path id="SvgjsPath3790" d="M70.811 87.159c-0.37 0.222-0.922 0.023-1.238-0.447 -0.316-0.466-0.269-1.024 0.102-1.247 0.368-0.219 0.925-0.021 1.239 0.446C71.226 86.378 71.181 86.938 70.811 87.159z" fill="#ffffff" stroke-width="none" opacity="0.6"/>
                    <path id="SvgjsPath3791" d="M78.71 83.74c-0.846 0.507-2.117 0.051-2.837-1.02 -0.72-1.072-0.612-2.352 0.234-2.857 0.844-0.509 2.118-0.053 2.834 1.019C79.66 81.954 79.556 83.232 78.71 83.74z" fill="#ffffff" stroke-width="none" opacity="0.8"/>
                  </g>
                </g>
              </g>
              <g id="svga-group-eyesfront-left">
                <path id="SvgjsPath3754" d="M55.772 86.694c1.203 13.754 10.653 24.163 21.106 23.249 10.453-0.915 17.952-12.807 16.749-26.561 -1.203-13.754-10.653-24.164-21.106-23.249C62.067 61.048 54.569 72.94 55.772 86.694zM60.942 83.152c0.246-3.146 5.084-4.86 13.516-4.419 9.473 0.495 13.163 4.338 12.88 7.482s-4.351 4.72-13.903 3.902C62.624 89.19 60.726 85.912 60.942 83.152z" fill="#f2aa92" stroke-width="none" opacity="1" stroke="none"/>
                <path id="SvgjsPath3755" d="M57.798 85.194c0.596 7.711 10.263 13.338 19.882 12.458 9.616-0.885 17.535-6.722 16.834-14.425 -0.697-7.699-9.053-13.224-18.673-12.342C66.221 71.771 56.98 74.647 57.798 85.194zM60.942 83.152c0.246-3.146 5.084-4.86 13.516-4.419 9.473 0.495 13.163 4.338 12.88 7.482s-4.351 4.72-13.903 3.902C62.624 89.19 60.726 85.912 60.942 83.152z" fill="url(#SvgjsRadialGradient3756)" opacity="1"/>
                <path id="SvgjsPath3760" d="M60.942 83.152c-0.216 2.76 1.682 6.038 12.492 6.964 9.553 0.818 13.62-0.758 13.903-3.902s-3.407-6.987-12.88-7.482C66.026 78.292 61.188 80.005 60.942 83.152z" fill="url(#SvgjsRadialGradient3761)" opacity="1"/>
                <path id="SvgjsPath3764" d="M85.569 79.486c-1.025-0.673-3.285-1.602-3.285-1.602s2.571 0.588 3.59 1.279 2.082 2.366 2.082 2.366S86.594 80.159 85.569 79.486zM67.02 77.131c0 0-2.657-0.034-4.546 1.136 -1.734 1.074-2.448 2.685-2.448 2.685s1.649-1.725 2.813-2.501C63.927 77.725 67.02 77.131 67.02 77.131z" fill="#c45e3b" stroke-width="none" opacity="1" stroke="none"/>
                <path id="SvgjsPath3765" d="M74.758 78.929c-6.156-0.216-15.613 0.376-13.409 6.209 -3.203-1.934-0.741-8.81 13.992-7.583 7.137 0.594 15.623 4.275 11.685 9.764C88.273 81.582 80.8 79.142 74.758 78.929zM85.623 89.012l-3.021 0.956c-5.294 0.085-8.251-0.28-13.196-0.504 -2.279-0.104-4.328-1.226-6.996-2.467 1.537 1.698 4.094 3.061 6.943 3.226 4.789 0.278 8.032 0.342 13.408 0.382L85.623 89.012z" fill="#092e0c" stroke-width="none" opacity="1" stroke="none"/>
              </g>
            </g>
          </g>
          <g id="svga-group-eyes-right-move" transform="matrix(1,0,0,1,0,0)">
            <g id="svga-group-eyes-right" transform="matrix(1,0,0,1,0,0)">
              <g id="svga-group-eyesback-right">
                <path id="SvgjsPath3737" d="M139.059 83.152c0.216 2.76-1.682 6.038-12.492 6.964 -9.553 0.818-13.62-0.758-13.903-3.902s3.407-6.987 12.88-7.482C133.975 78.292 138.813 80.005 139.059 83.152z" fill="url(#SvgjsRadialGradient3738)" opacity="1"/>
              </g>
              <g id="svga-group-eyesiriswrapper-right" transform="matrix(1,0,0,1,-0.5,0.25)">
                <g id="svga-group-eyesiriscontrol-right" transform="matrix(1,0,0,1,0,0)">
                  <g id="svga-group-eyesiris-right" transform="matrix(1,0,0,1,0,0)">
                    <path id="SvgjsPath3792" d="M131.788 85.588c-0.869 3.192-4.162 5.073-7.362 4.196 -3.196-0.876-5.084-4.178-4.214-7.371 0.869-3.195 4.169-5.076 7.365-4.198C130.772 79.09 132.658 82.392 131.788 85.588z" fill="#4e60a3" stroke="#152975" stroke-width="0.5" opacity="1"/>
                    <path id="SvgjsPath3793" d="M130.855 85.662c-0.849 2.452-3.408 3.881-5.899 3.199 -2.3-0.631-3.753-2.838-3.563-5.171 0.854-0.067 1.787-0.087 2.756-0.04 -0.01 0.033-0.027 0.062-0.036 0.096 -0.306 1.125 0.407 2.305 1.593 2.63 1.189 0.326 2.401-0.326 2.707-1.451 0.038-0.147 0.06-0.294 0.065-0.439C129.29 84.782 130.089 85.165 130.855 85.662z" fill="#6777b2" stroke-width="none" opacity="1"/>
                    <path id="SvgjsPath3794" d="M126.813 82.21c-1.202-0.344-2.429 0.342-2.738 1.54 -0.312 1.191 0.412 2.438 1.613 2.783 1.204 0.345 2.431-0.342 2.742-1.534C128.741 83.801 128.016 82.555 126.813 82.21zM127.075 86.442c-0.5 0.156-1.018-0.051-1.154-0.462 -0.133-0.411 0.163-0.867 0.667-1.019 0.503-0.156 1.019 0.051 1.157 0.459C127.881 85.831 127.582 86.287 127.075 86.442z" fill="#000000" stroke-width="none" opacity="0.9"/>
                    <path id="SvgjsPath3795" d="M122.812 87.159c-0.37 0.222-0.923 0.023-1.238-0.447 -0.316-0.466-0.27-1.024 0.102-1.247 0.367-0.219 0.926-0.021 1.239 0.446C123.227 86.378 123.181 86.938 122.812 87.159z" fill="#ffffff" stroke-width="none" opacity="0.6"/>
                    <path id="SvgjsPath3796" d="M130.71 83.74c-0.846 0.507-2.116 0.051-2.837-1.02 -0.72-1.072-0.612-2.352 0.234-2.857 0.845-0.509 2.117-0.053 2.834 1.019C131.66 81.954 131.557 83.232 130.71 83.74z" fill="#ffffff" stroke-width="none" opacity="0.8"/>
                  </g>
                </g>
              </g>
              <g id="svga-group-eyesfront-right">
                <path id="SvgjsPath3775" d="M127.479 60.133c-10.453-0.915-19.903 9.495-21.106 23.249 -1.203 13.754 6.296 25.646 16.749 26.561 10.453 0.914 19.903-9.495 21.106-23.249C145.432 72.94 137.934 61.048 127.479 60.133zM126.566 90.116c-9.553 0.818-13.62-0.758-13.903-3.902s3.407-6.987 12.88-7.482c8.432-0.44 13.27 1.273 13.516 4.419C139.274 85.912 137.377 89.19 126.566 90.116z" fill="#f2aa92" stroke-width="none" opacity="1" stroke="none"/>
                <path id="SvgjsPath3776" d="M124.159 70.885c-9.62-0.882-17.976 4.643-18.673 12.342 -0.701 7.703 7.218 13.54 16.834 14.425 9.619 0.88 19.286-4.747 19.882-12.458C143.021 74.647 133.779 71.771 124.159 70.885zM126.566 90.116c-9.553 0.818-13.62-0.758-13.903-3.902s3.407-6.987 12.88-7.482c8.432-0.44 13.27 1.273 13.516 4.419C139.274 85.912 137.377 89.19 126.566 90.116z" fill="url(#SvgjsRadialGradient3777)" opacity="1"/>
                <path id="SvgjsPath3781" d="M139.059 83.152c0.216 2.76-1.682 6.038-12.492 6.964 -9.553 0.818-13.62-0.758-13.903-3.902s3.407-6.987 12.88-7.482C133.975 78.292 138.813 80.005 139.059 83.152z" fill="url(#SvgjsRadialGradient3782)" opacity="1"/>
                <path id="SvgjsPath3785" d="M112.045 81.529c0 0 1.063-1.675 2.082-2.366s3.59-1.279 3.59-1.279 -2.26 0.929-3.285 1.602S112.045 81.529 112.045 81.529zM137.161 78.451c1.164 0.776 2.813 2.501 2.813 2.501s-0.714-1.61-2.448-2.685c-1.889-1.169-4.546-1.136-4.546-1.136S136.073 77.725 137.161 78.451z" fill="#c45e3b" stroke-width="none" opacity="1" stroke="none"/>
                <path id="SvgjsPath3786" d="M112.975 87.32c-3.938-5.489 4.548-9.17 11.685-9.764 14.733-1.227 17.195 5.648 13.992 7.583 2.204-5.833-7.253-6.425-13.409-6.209C119.2 79.142 111.728 81.582 112.975 87.32zM117.239 90.604c5.376-0.04 8.619-0.104 13.408-0.382 2.85-0.165 5.406-1.528 6.943-3.226 -2.668 1.241-4.717 2.363-6.996 2.467 -4.945 0.225-7.902 0.589-13.196 0.504l-3.021-0.956L117.239 90.604z" fill="#092e0c" stroke-width="none" opacity="1" stroke="none"/>
              </g>
            </g>
          </g>
          <g id="svga-group-facehighlight-single">
            <path id="SvgjsPath3539" d="M141 113.974c0.035 22.622-18.292 40.994-40.938 41.025 -22.642 0.037-41.028-18.273-41.063-40.9 -0.035-22.62 18.292-41.064 40.937-41.1C122.579 72.964 140.967 91.349 141 113.974z" fill="url(#SvgjsRadialGradient3540)" opacity="1"/>
            <path id="SvgjsPath3543" d="M137.5 53.999c0 20.711-16.789 37.5-37.499 37.5 -20.711 0-37.501-16.789-37.501-37.5s16.79-37.5 37.501-37.5C120.711 16.499 137.5 33.288 137.5 53.999z" fill="url(#SvgjsRadialGradient3544)" opacity="1"/>
          </g>
          <g id="svga-group-eyebrows-left-move" transform="matrix(1,0,0,1,0,0)">
            <g id="svga-group-eyebrows-left-rotate" transform="matrix(1,0,0,1,0,0)">
              <g id="svga-group-eyebrows-left" transform="matrix(1,0,0,1,0,0)">
                <path id="SvgjsPath3673" d="M54 74.189c9.954-9.974 16.761-5.915 30.589-3.264 0.845 0.162 6.32 1.539 5.31 3.469 -0.483 0.924-2.036 0.814-2.903 0.798C73.308 74.936 66.652 65.197 54 74.189z" fill="#2a232b" stroke-width="none" opacity="1"/>
              </g>
            </g>
          </g>
          <g id="svga-group-eyebrows-right-move" transform="matrix(1,0,0,1,0,0)">
            <g id="svga-group-eyebrows-right-rotate" transform="matrix(1,0,0,1,0,0)">
              <g id="svga-group-eyebrows-right" transform="matrix(1,0,0,1,0,0)">
                <path id="SvgjsPath3674" d="M146 74.189c-9.953-9.974-16.761-5.915-30.589-3.264 -0.846 0.162-6.32 1.539-5.311 3.469 0.483 0.924 2.036 0.814 2.903 0.798C126.691 74.936 133.348 65.197 146 74.189z" fill="#2a232b" stroke-width="none" opacity="1"/>
              </g>
            </g>
          </g>
          <g id="svga-group-nose-single-move" transform="matrix(1,0,0,1,0,0)">
            <g id="svga-group-nose-single" transform="matrix(1,0,0,1,0,0)">
              <path id="SvgjsPath3806" d="M99.084 89.999c0 0-0.887 20.454-0.765 24.946 0.035 1.275 2.489 4.617 2.322 7.054 0 0-4.788-0.349-6.345-0.898 -1.629-0.578-4.151-1.704-3.154-4.85C92.562 111.776 99.084 89.999 99.084 89.999z" fill="#e38e72" stroke-width="none" opacity="1" stroke="none"/>
              <path id="SvgjsPath3807" d="M98.638 119.598c0 0-1.985-0.705-3.239-0.669 -1.142 0.035-1.306-0.726-1.191-1.158 0.116-0.433 0.507-0.701 1.61-0.407C96.921 117.658 98.638 119.598 98.638 119.598zM101.593 119.6c0 0 1.98-0.653 3.239-0.667 1.142-0.014 1.308-0.726 1.191-1.157 -0.116-0.435-0.508-0.705-1.61-0.411C103.31 117.662 101.593 119.6 101.593 119.6z" fill="#c45e3b" stroke-width="none" opacity="1" stroke="none"/>
            </g>
          </g>
          <g id="svga-group-beardwrap" transform="matrix(1,0,0,1,0,0)">
            <g id="svga-group-beard-single-move" transform="matrix(1,0,0,1,0,0)">
              <g id="svga-group-beard-single" transform="matrix(1,0,0,1,0,0)">
                <path id="SvgjsPath3557" d="M100,18.13L100,18.13L100,18.13L100,18.13z" fill="#2a232b" stroke-width="none" opacity="1"/>
              </g>
            </g>
          </g>
          <g id="svga-group-mustache-single-move" transform="matrix(1,0,0,1,0,0)">
            <g id="svga-group-mustache-single" transform="matrix(1,0,0,1,0,0)">
              <path id="SvgjsPath3712" d="M102.33 124.84c-0.64-0.1-1.76-0.16-2.25 0.27 -0.03 0.03-0.05 0.05-0.08 0.08 -0.03-0.03-0.05-0.06-0.08-0.08 -0.49-0.42-1.61-0.37-2.25-0.27L75.2 130.4l22.66-0.87c0.61 0.03 1.2-0.19 1.64-0.62 0.21-0.21 0.78-0.21 1 0 0.44 0.42 1.03 0.64 1.64 0.62l22.66 0.87L102.33 124.84z" fill="#b7513b" stroke-width="none" opacity="1" stroke="none"/>
            </g>
          </g>
          <g id="svga-group-hair-front" transform="matrix(1,0,0,1,0,0)">
            <path id="SvgjsPath3709" d="M44.974,94.895c-2.423-8.815-3.728-16.533-5.54-24.585l0.083-0.019c-0.686-1.689-3.162-15.06-3.185-15.204c-2.525-17.77,4.993-18.784,4.84-26.198c3.165,1.585,6.242,0.799,9.019-1.365c-2.918-1.499-1.997-1.736-5.872-4.095c2.731-0.472,4.326,0.165,6.646,0.454c-1.983-1.983-5.875-6.028-8.404-5.492l-0.165-0.354c3.661-2.857,8.548,3.091,12.954,1.48C55.483,3.144,79.417-0.256,85.242-2.689c7.755-2.951,15.856-9.441,21.553-10.021c-3.225,3.241-5.2,8.449-5.347,12.358c4.698-4.486,5.03-4.355,12.151-12.264c0,6.364-1.763,7.163-4.051,10.898c6.211-4.07,13.955-15.489,25.881-17.235l0.131,0.37c-4.298,2.532-7.624,6.804-9.898,12.708c2.257-2.726,5.451-5.683,8.986-6.218l0.133,0.369c-2.215,1.325-6.554,5.742-7.547,13.138c4.381-4.893,11.35-8.948,16.134-10.48l0.187,0.346c-4.392,3.573-6.153,9.828-7.146,15.146c3.08-4.58,4.872-5.624,8.747-7.548c-1.247,1.865-1.166,1.539-2.158,3.566c2.396,6.123,10.313,6.361,11.666,17.059c1.63-1.424,2.277-1.781,4.151-3.092l0.282,0.272c-1.408,2.187-2.569,6.06-3.342,8.652c2.78-2.123,7.073-3.687,10.096-4.778l0.211,0.328c-2.551,2.593-5.648,6.546-6.162,10.834c1-0.592,1.048-0.524,2.35-1.466c0,3.081,0.105,2.688,0.127,4.105c1.257-1.125,1.45-1.282,2.276-2.181c-0.183,32.362-1.845,25.912-6.317,48.466c-0.784,3.963-2.171,10.883-3.061,14.207l-6.049,1.039c1.87-22.394-0.093-17.512,1.267-31.604c2.012-20.779-14.804-37.812-37.025-32.237c-4.496,1.128-22.44,1.127-26.934,0c-24.547-6.163-33.391,8.18-36.026,33.278c-1.291,12.318-1.607,8.161,0.267,30.563L44.974,94.895z" fill="#b7513b" stroke-width="none" opacity="1" stroke="none"/>
            <path id="SvgjsPath3710" d="M162.376,34.359c-0.021-1.418-0.127-1.024-0.127-4.105c-1.302,0.941-1.35,0.874-2.35,1.466c0.514-4.288,3.611-8.241,6.162-10.834l-0.211-0.328c-3.022,1.092-7.315,2.655-10.096,4.778c0.772-2.592,1.934-6.465,3.342-8.652l-0.282-0.272c-1.874,1.311-2.521,1.668-4.151,3.092c-1.353-10.697-9.27-10.936-11.666-17.059c0.992-2.027,0.911-1.701,2.158-3.566c-3.875,1.924-5.667,2.968-8.747,7.548c0.993-5.318,2.755-11.573,7.146-15.146l-0.187-0.346c-4.784,1.532-11.753,5.587-16.134,10.48c0.993-7.396,5.332-11.813,7.547-13.138l-0.133-0.369c-3.535,0.535-6.729,3.493-8.986,6.218c2.274-5.904,5.601-10.176,9.898-12.708l-0.131-0.37c-11.926,1.746-19.67,13.165-25.881,17.235c2.288-3.735,4.051-4.535,4.051-10.898c-7.121,7.909-7.453,7.778-12.151,12.264c0.146-3.909,2.122-9.118,5.347-12.358c-5.696,0.58-13.797,7.069-21.553,10.021C79.417-0.256,55.483,3.144,55.35,19.518c-4.406,1.611-9.293-4.337-12.954-1.48l0.165,0.354c2.529-0.537,6.421,3.508,8.404,5.492c-2.319-0.289-3.915-0.926-6.646-0.454c3.875,2.359,2.954,2.596,5.872,4.095c-2.777,2.164-5.854,2.95-9.019,1.365c0.153,7.415-7.366,8.429-4.84,26.198c0.023,0.144,2.499,13.515,3.185,15.204l-0.083,0.019c1.812,8.052,3.117,15.771,5.54,24.585L45,94.899c-0.661-16.442-11.02-39.816-4.941-54.788C40.852,38.156,43.92,33,43.92,33s9.627-1.264,10.08-5c0,0-2-1-3-2c2,1,2-2,4-1c0-2-3-1-3-3c2,0,4,0,6,2c-1-5,0-10,4-13C72,3,85,4,95-4c-1,5-2,10-2,15c6-3,8-9,13-13c1,4-1,9-1,13c3-7,7-14,16-16c-4,4-4,10-4,15c0-4,4-6,5-9c0,4,0,8,0,12c2-6,6-9,11-11c-4,4-3,8-4,13c3-3,7-4,10-7c3,6,1,11,1,17c1-5,6-8,9-12c1,5,1,10,0,15c1-3,3-5,4-8c0,4.86-0.668,9.062-1.98,13.142c1.255-1.452,3.304-2.111,3.98-4.142c0,4.325,0,7.904,0,12.027c0.58-1.192,2.29-1.608,3-3.027c-0.854,3.413-0.254,6.103-0.059,9.302c0.371-1.96,2.258-3.162,2.94-4.967c0.04-0.778,0.081-1.557,0.118-2.335c0.229,0.912,0.135,1.664-0.118,2.335c-0.912,17.771-2.593,35.516-6.256,52.628l0.648-0.111c0.89-3.324,2.276-10.244,3.061-14.207c4.473-22.554,6.135-16.104,6.317-48.466C163.826,33.078,163.633,33.235,162.376,34.359z" fill="#c66854" stroke-width="none" opacity="1" stroke="none"/>
            <path id="SvgjsPath3711" d="M167.779,19.695c-4.949,0.834-8.406,2.438-11.05,4.25c0.385-1.005,2.193-6.67,4.14-9.05c-2.99,1.333-4.72,2.763-5.72,3.51c0-1.032-0.398-2.224-0.59-2.84c-0.189-0.515-0.348-1.117-1.271-2.62c-5.171-7.296-5.494-4.244-9.729-9.83c0.772-1.811,1.889-3.572,3.29-5.03c-3.908,0.555-5.965,2.075-8.44,4.51c-0.04,0.04-0.07,0.08-0.1,0.12c1.551-6.126,4.59-11.437,10.56-13.43c-7.384-0.268-16.525,5.192-21.12,10.64c1.984-6.381,4.646-9.421,8.601-12.25c-2.846-0.421-5.635,0.742-7.841,2.58c2.541-4.397,6.317-7.899,9.351-9.53c-0.431-0.01-0.94-0.04-1.5,0c-0.777-0.199-5.479,0.566-7.16,1.29c-8.329,3.252-14.389,10.822-16.99,13.28c1.916-3.098,2.01-5.298,1.66-8.52c-0.655,0.563-11.615,11.055-11.75,11.19c0.777-4.309,2.245-6.937,5.02-10.79c-4.947-0.926-17.332,7.217-25.01,9.39c-8.044,2.179-28.004,6.723-27.09,22.7c-4.295,0.819-10.584-6.077-13.88-0.29c2.646-1.57,6.151,2.21,8.59,4.37c-1-0.163-4.343-0.948-5.96,0.13c1.894,0.735,3.55,2.932,5.89,4.1c0.03,0.01,0.06,0.02,0.09,0.04c-2.139,1.128-4.667,2.034-6.99,1.39c-0.35-0.1-0.58-0.16-0.58-0.17c-0.27-0.12-0.56-0.24-0.87-0.38h-0.01l-0.01-0.01c-0.13-0.07-0.26-0.14-0.4-0.21c0.695,5.608-7.817,10.155-6.88,22.02c0.385,7.301,4.949,29.508,10.686,44.566l0.483,0.144c-2.392-8.626-3.777-16.74-5.569-24.701c-0.156,0-3.073-15.044-3.1-15.21c-2.506-17.631,4.994-18.91,4.85-25.84c3.121,1.561,6.532,0.436,9.18-1.73c-3.118-1.551-2.453-1.988-5.68-3.95c2.163-0.374,4.803,0.483,6.62,0.6c-2.346-2.346-6.299-6.51-8.98-5.94c3.568-2.785,8.497,3.271,13.03,1.46c0-16.383,23.723-19.635,29.77-22.16c7.271-2.766,16.283-9.476,20.939-9.95c-2.44,2.458-5.02,7.901-5.02,12.58c4.834-4.638,5.31-4.615,12.16-12.22c0,6.014-2.247,7.088-4.431,10.97c6.414-3.698,14.179-15.828,26.49-17.63c-5.154,3.037-8.435,8.325-10.41,13.97c2.352-3.059,5.8-6.53,9.63-7.11c-2.009,1.202-6.861,5.782-7.72,13.93c4.345-5.114,11.586-9.346,16.47-10.91c-4.605,3.748-6.368,10.371-7.39,16.22c1.687-2.573,3.357-4.897,5.97-6.54c0.011-0.01,0.03-0.02,0.04-0.02c1.029-0.699,0.76-0.509,2.521-1.39c-0.669,1-0.731,0.87-1.79,3.04c2.426,6.377,10.523,6.413,11.729,17.47c1.857-1.647,2.441-1.944,4.42-3.33c-1.542,2.394-2.784,6.768-3.55,9.32c2.905-2.485,8.279-4.33,10.54-5.15c-3,3.05-5.913,7.096-6.26,11.36c0.614-0.413,1.394-0.74,2.39-1.46c0,2.724,0.13,2.36,0.13,4.16c0.526-0.481,1.72-1.51,2.271-2.11c-0.196,31.716-1.88,25.564-6.311,47.91c-1.658,8.376-2.533,12.25-3.081,14.283l0.428-0.087c3.584-10.751,10.737-35.042,10.414-47.616c-0.033-4.7-1.059-14.5-1.11-15.5c-0.021,0.018-2.084,1.97-2.11,1.97c0-0.511-0.21-2.685-0.21-3.87c-0.353,0.271-1.095,0.778-2.09,1.36C161.758,26.981,163.857,24.394,167.779,19.695z" fill="#891b03" stroke-width="none" opacity="1" stroke="none"/>
          </g>
          <g id="svga-group-glasses-single-move" transform="matrix(1,0,0,1,0,0)">
            <g id="svga-group-glasses-single" transform="matrix(1,0,0,1,0,0)">
              <path id="SvgjsPath3675" d="M100,18.13L100,18.13L100,18.13L100,18.13z" fill="#26120b" stroke-width="none" opacity="1"/>
            </g>
          </g>
        </g>
      </g>
    </g>
    <rect id="SvgjsRect3524" width="200" height="15" x="0" y="185" fill="#ecf0f1" opacity="0.5" style="display: none;"/>
    <text id="SvgjsText3525" font-family="Roboto, Helvetica, Arial, sans-serif" font-size="10px" text-anchor="start" font-weight="400" anchor="start" fill="#333333" x="57.8984375" y="182.4296875" style="display: none;">
      <tspan id="SvgjsTspan3526" dy="13" x="57.8984375">Created on face.co</tspan>
    </text>
  </g>
</svg>
